<svg id="Group_1" data-name="Group 1" xmlns="http://www.w3.org/2000/svg" viewBox="0 0 317.88 160.71"><defs><style>.cls-1{fill:#ff76b8;}</style></defs><path class="cls-1" d="M119.81,290.88a5.77,5.77,0,0,1-1.64,4.31,6.53,6.53,0,0,1-8.54,0,5.77,5.77,0,0,1-1.64-4.31v-26l-10.21,20.5A8.44,8.44,0,0,1,95,288.65a6.67,6.67,0,0,1-3.92,1.18,6.89,6.89,0,0,1-4.1-1.18,8.53,8.53,0,0,1-2.71-3.26l-10.15-20.5v26a5.77,5.77,0,0,1-1.63,4.31,5.91,5.91,0,0,1-10.18-4.31V242.79A5.81,5.81,0,0,1,64,238.48a5.88,5.88,0,0,1,4.28-1.59,5.71,5.71,0,0,1,3.61,1.18,7.19,7.19,0,0,1,2.29,3.06l17,33.14,16.81-33.14a11.09,11.09,0,0,1,2.33-3,5.27,5.27,0,0,1,3.65-1.21,5.86,5.86,0,0,1,4.27,1.59,5.77,5.77,0,0,1,1.64,4.31Z" transform="translate(-62.34 -149.32)"/><path class="cls-1" d="M308.23,273.16V242.79a5.54,5.54,0,0,1,1.77-4.31,6.92,6.92,0,0,1,8.83,0,5.54,5.54,0,0,1,1.77,4.31V291a5.37,5.37,0,0,1-.52,2.39,5.64,5.64,0,0,1-1.36,1.81,6.16,6.16,0,0,1-1.94,1.15,6.68,6.68,0,0,1-2.3.41,6.85,6.85,0,0,1-3.05-.62,5.88,5.88,0,0,1-2.09-1.74l-26-34v30.44a5.54,5.54,0,0,1-1.78,4.31,6.91,6.91,0,0,1-8.82,0,5.54,5.54,0,0,1-1.77-4.31V242.79a5.34,5.34,0,0,1,1.87-4.34,6.36,6.36,0,0,1,4.17-1.56,6.51,6.51,0,0,1,3.23.66,6.83,6.83,0,0,1,2.05,1.84Z" transform="translate(-62.34 -149.32)"/><path class="cls-1" d="M353.4,286.29a15.24,15.24,0,0,0,5.42-.94,14.6,14.6,0,0,0,4.37-2.53,13.65,13.65,0,0,0,3.06-3.72,11.92,11.92,0,0,0,1.46-4.55H355.48a4.53,4.53,0,0,1-3.61-1.63,5.57,5.57,0,0,1-1.39-3.72,5.5,5.5,0,0,1,1.39-3.75,4.54,4.54,0,0,1,3.61-1.6H374a6,6,0,0,1,4.7,1.77,6.43,6.43,0,0,1,1.56,4.41,30.77,30.77,0,0,1-1.67,10,25.08,25.08,0,0,1-13.44,14.91,27.41,27.41,0,0,1-11.71,2.36,31.45,31.45,0,0,1-11.12-1.95,25.21,25.21,0,0,1-9.1-5.8A27.31,27.31,0,0,1,327,280a35.58,35.58,0,0,1-2.26-13.2,34.88,34.88,0,0,1,2.26-13,27.72,27.72,0,0,1,6.11-9.52,25.52,25.52,0,0,1,9-5.84,30.78,30.78,0,0,1,11.09-2,30.07,30.07,0,0,1,7.26.87A31.4,31.4,0,0,1,367,239.6a24,24,0,0,1,5.25,3.47,17.08,17.08,0,0,1,3.61,4.31,6,6,0,0,1,.73,4.13,4.94,4.94,0,0,1-2.4,3.51,6.39,6.39,0,0,1-2,.8,5.76,5.76,0,0,1-2.19.07,6.54,6.54,0,0,1-2.08-.69,5.2,5.2,0,0,1-1.67-1.43,18.36,18.36,0,0,0-5-4.38,15.14,15.14,0,0,0-7.95-1.87,15.79,15.79,0,0,0-6.12,1.21,14.76,14.76,0,0,0-5.14,3.62,17.52,17.52,0,0,0-3.54,6,24.46,24.46,0,0,0-1.32,8.41,24.76,24.76,0,0,0,1.32,8.44,18.3,18.3,0,0,0,3.54,6.11,14.42,14.42,0,0,0,5.18,3.72A15.85,15.85,0,0,0,353.4,286.29Z" transform="translate(-62.34 -149.32)"/><path class="cls-1" d="M69.62,218.51a1.58,1.58,0,0,1-.19,1.34,2,2,0,0,1-2.48.63,1.6,1.6,0,0,1-.81-1.08l-3.3-13a2,2,0,0,1,.18-1.56,2,2,0,0,1,1.28-.9l5.52-1.4a6.39,6.39,0,0,1,2.64-.16,4.89,4.89,0,0,1,3.45,2.3,6.85,6.85,0,0,1,.82,1.93,6.72,6.72,0,0,1,.2,2.09,5,5,0,0,1-.54,2,5,5,0,0,1-1.4,1.67,6.36,6.36,0,0,1-2.4,1.11l-4,1Zm-1.8-7.12,3.7-.94a2.7,2.7,0,0,0,1-.49,2.08,2.08,0,0,0,.58-.72,2.21,2.21,0,0,0,.2-.85,3.45,3.45,0,0,0-.1-.9,3.54,3.54,0,0,0-.34-.83,2.12,2.12,0,0,0-.59-.67,2,2,0,0,0-.85-.35,2.58,2.58,0,0,0-1.15.07l-3.7.94Z" transform="translate(-62.34 -149.32)"/><path class="cls-1" d="M83.64,215a1.58,1.58,0,0,1-.2,1.34,1.87,1.87,0,0,1-1.14.77,1.89,1.89,0,0,1-1.37-.13,1.62,1.62,0,0,1-.81-1.09l-3.44-13.54a1.61,1.61,0,0,1,.2-1.35,2,2,0,0,1,1.14-.77,1.89,1.89,0,0,1,1.37.14,1.55,1.55,0,0,1,.81,1.08l1.31,5.13,6.95-1.76-1.3-5.13a1.55,1.55,0,0,1,.2-1.34,2,2,0,0,1,2.5-.64,1.6,1.6,0,0,1,.82,1.09l3.43,13.54a1.58,1.58,0,0,1-.2,1.35,1.85,1.85,0,0,1-1.14.76,1.81,1.81,0,0,1-1.36-.13,1.56,1.56,0,0,1-.82-1.08l-1.34-5.29-7,1.76Z" transform="translate(-62.34 -149.32)"/><path class="cls-1" d="M99.36,194.64a8.64,8.64,0,0,1,3.12-.22,7.32,7.32,0,0,1,2.93,1,8.1,8.1,0,0,1,2.43,2.23,11.28,11.28,0,0,1,1.89,7.46,8,8,0,0,1-1.07,3.13,7.47,7.47,0,0,1-2.11,2.26,8.45,8.45,0,0,1-2.84,1.31,8.76,8.76,0,0,1-3.14.21,7.52,7.52,0,0,1-2.95-1,8.17,8.17,0,0,1-2.44-2.24,9.8,9.8,0,0,1-1.61-3.57,9.63,9.63,0,0,1-.28-3.89,8.14,8.14,0,0,1,1.08-3.12,7.3,7.3,0,0,1,2.13-2.26A8.64,8.64,0,0,1,99.36,194.64Zm.79,3.09a4.35,4.35,0,0,0-1.64.81A4.55,4.55,0,0,0,97.35,200a5.3,5.3,0,0,0-.53,2,7.15,7.15,0,0,0,.23,2.38,7.22,7.22,0,0,0,.93,2.2A5.6,5.6,0,0,0,99.39,208a4.46,4.46,0,0,0,1.71.73,4.05,4.05,0,0,0,1.83-.06,4,4,0,0,0,1.6-.81,4.43,4.43,0,0,0,1.14-1.45,5.77,5.77,0,0,0,.52-2,7.42,7.42,0,0,0-.23-2.38,7.23,7.23,0,0,0-.94-2.2,5.35,5.35,0,0,0-1.39-1.48,4.29,4.29,0,0,0-1.68-.72A4.21,4.21,0,0,0,100.15,197.73Z" transform="translate(-62.34 -149.32)"/><path class="cls-1" d="M109.86,195.69a1.32,1.32,0,0,1-1.14-.22,1.64,1.64,0,0,1-.66-1,1.71,1.71,0,0,1,.12-1.17,1.3,1.3,0,0,1,.9-.74l11.15-2.83a1.32,1.32,0,0,1,1.14.22,1.71,1.71,0,0,1,.67,1,1.77,1.77,0,0,1-.13,1.17,1.3,1.3,0,0,1-.89.74l-3.8,1,3,11.86A1.58,1.58,0,0,1,120,207a2.07,2.07,0,0,1-2.53.64,1.56,1.56,0,0,1-.82-1.08l-3-11.87Z" transform="translate(-62.34 -149.32)"/><path class="cls-1" d="M129.8,186.92a8.89,8.89,0,0,1,3.12-.22,7.48,7.48,0,0,1,2.93,1,8.1,8.1,0,0,1,2.43,2.23,11.28,11.28,0,0,1,1.89,7.46,8,8,0,0,1-1.07,3.13,7.62,7.62,0,0,1-2.11,2.27,8.63,8.63,0,0,1-2.84,1.3,8.76,8.76,0,0,1-3.14.21,7.52,7.52,0,0,1-2.95-1,8.39,8.39,0,0,1-2.44-2.23,9.93,9.93,0,0,1-1.61-3.58,9.81,9.81,0,0,1-.28-3.89,8.14,8.14,0,0,1,1.08-3.12,7.41,7.41,0,0,1,2.13-2.26A8.73,8.73,0,0,1,129.8,186.92Zm.79,3.09a4.42,4.42,0,0,0-1.64.81,4.55,4.55,0,0,0-1.16,1.44,5.5,5.5,0,0,0-.53,2,7.9,7.9,0,0,0,1.16,4.58,5.46,5.46,0,0,0,1.41,1.49,4.31,4.31,0,0,0,1.71.73,4.19,4.19,0,0,0,1.83-.05,4.24,4.24,0,0,0,1.61-.82,4.4,4.4,0,0,0,1.13-1.45,5.77,5.77,0,0,0,.52-2,7.9,7.9,0,0,0-1.16-4.58,5.54,5.54,0,0,0-1.4-1.48,4.53,4.53,0,0,0-1.68-.72A4.21,4.21,0,0,0,130.59,190Z" transform="translate(-62.34 -149.32)"/><path class="cls-1" d="M235.53,171.37a1.66,1.66,0,0,1-1.4-1.88l2.74-18.75a1.67,1.67,0,0,1,1.88-1.4,1.65,1.65,0,0,1,1.39,1.88L237.4,170a1.66,1.66,0,0,1-1.87,1.4" transform="translate(-62.34 -149.32)"/><path class="cls-1" d="M248.69,177a1.65,1.65,0,0,1-1.05-2.66l11.75-14.87a1.65,1.65,0,1,1,2.59,2.05l-11.75,14.87a1.66,1.66,0,0,1-1.54.61" transform="translate(-62.34 -149.32)"/><path class="cls-1" d="M257.26,188.54a1.66,1.66,0,0,1-1.29-1,1.64,1.64,0,0,1,.92-2.14l17.61-7a1.65,1.65,0,1,1,1.22,3.07l-17.61,7a1.67,1.67,0,0,1-.85.1" transform="translate(-62.34 -149.32)"/><path class="cls-1" d="M263.92,264.7l-17.09-66.08a18.34,18.34,0,0,0-21.43-13.35l-.77-3a2.27,2.27,0,0,0-2.74-1.62l-15,3.89a2.23,2.23,0,0,0-1.6,2.73l.77,3L203,191a60.4,60.4,0,0,0-30.85-.46h0l-.6.17a60.18,60.18,0,0,0-27.33,15.47l-38.14,9.86a18.28,18.28,0,0,0-11.19,8.45h0a18.31,18.31,0,0,0-2,13.87l8.39-2.18a9.68,9.68,0,0,1,7-11.76l27-7q-.39.56-.72,1.14a60.4,60.4,0,0,0-6.62,45.3v.19l.17.53a60.65,60.65,0,0,0,73.83,43.43v0a60,60,0,0,0,27.33-15.49L250.77,287a18.2,18.2,0,0,0,11.17-8.44v0A18.21,18.21,0,0,0,263.92,264.7Zm-64.22,35a51.93,51.93,0,0,1-63.27-37.27v0a51.94,51.94,0,0,1,37.22-63.27h.07a51.94,51.94,0,1,1,26,100.57Zm54.79-25.5,0,0a9.64,9.64,0,0,1-5.89,4.47l-10.37,2.68c.26-.38.5-.75.72-1.14a60.61,60.61,0,0,0-21.46-83c-.38-.22-.75-.44-1.14-.65l10.35-2.68a9.76,9.76,0,0,1,7.32,1,9.65,9.65,0,0,1,4.43,5.89l17.1,66.1A9.8,9.8,0,0,1,254.49,274.19Z" transform="translate(-62.34 -149.32)"/><path class="cls-1" d="M175.32,205.32a45.52,45.52,0,1,1-27.84,21,45.41,45.41,0,0,1,27.84-21Zm28.89,14.4a34.47,34.47,0,1,0,15.86,21.07,34.35,34.35,0,0,0-15.86-21.07Z" transform="translate(-62.34 -149.32)"/><path class="cls-1" d="M214.67,242.18a2.16,2.16,0,0,1-4.19,1.09,24.55,24.55,0,0,0-11.31-15l-.11-.08a24.53,24.53,0,0,0-18.49-2.54,2.17,2.17,0,1,1-1.08-4.2,28.73,28.73,0,0,1,21.76,3l.13.07a28.75,28.75,0,0,1,13.29,17.65Z" transform="translate(-62.34 -149.32)"/></svg>