<svg xmlns="http://www.w3.org/2000/svg" viewBox="0 0 176.33 160.37"><defs><style>.cls-1{fill:#fff;}.cls-2{fill:#ffc5d4;}.cls-3{fill:#62242d;}.cls-4{fill:#d32c44;}.cls-5{fill:#ff9ab1;}.cls-6{fill:#d5567f;}.cls-7{fill:#731b37;}.cls-8{fill:#8f3d59;}.cls-9{fill:#e26699;}</style></defs><g id="Layer_2" data-name="Layer 2"><path class="cls-1" d="M40.71,115.28A21.09,21.09,0,0,1,36.85,124a12.27,12.27,0,0,1-2.14,2c-2.69,2.29-5.47,4.44-9,5.32a3.19,3.19,0,0,1-.6.08c-.06,0-.12-.06-.16-.08a29.33,29.33,0,0,0,3.29-3.63,32.5,32.5,0,0,0,2.36-5.07c.25-.61.31-1.1,1.19-1s2-1,2.29-2.32a4,4,0,0,0-1.34-4.51,16.13,16.13,0,0,1-2.85-3.2,2.93,2.93,0,0,1,1.63-4.52C36.82,105.36,41.68,109.64,40.71,115.28Z"/><path class="cls-2" d="M164.36,93.45c-1.17,3.77-2.73,7.43-4.18,11.12a1.92,1.92,0,0,1-1.18.9,30.43,30.43,0,0,0-9.82,4.8,1.83,1.83,0,0,1-1.34.42c-3-.87-5.77-.06-8.41,1.31a18,18,0,0,0-7.08,25.08c.53.88.11,1.19-.49,1.63a78.81,78.81,0,0,1-21.59,11c-3.89,1.33-7.81,2.6-11.76,3.69-3.43,1-7,.8-10.5.78-4.5,0-8.7-1.4-12.88-2.8-4.5-1.5-9-3-13.39-4.86C54,143.32,47.3,138.5,41,133a1,1,0,0,1-.25-1.35,13.78,13.78,0,0,0,1.09-9.09,2,2,0,0,1,.2-1.15A17.43,17.43,0,0,0,44,114c-.11-4.31-1.92-7.78-5.91-9.74a18.27,18.27,0,0,0-3.91-1c-.28-3.59-.47-7.07-.9-10.52a12.37,12.37,0,0,0-1.34-4.27,6.76,6.76,0,0,0-6.16-3.77,5.34,5.34,0,0,0-4,1.88,13.33,13.33,0,0,0-3.23,6.1c-.52,1.94-.93,3.91-1.4,5.91-.09-.24-.25-.53-.36-.85a69.39,69.39,0,0,1-3.7-26.37,44.1,44.1,0,0,1,8-22.76c3.43-4.89,7.08-9.56,12-13.13,7.56-5.48,15.89-8.67,25.29-8.78a32.07,32.07,0,0,1,4.48.35c8.79,1.1,16.3,4.49,21.15,12.29a32.66,32.66,0,0,1,2.61,6.33c.73,2,1.63,2.83,3.46,2.61a2.59,2.59,0,0,0,2.37-2,36.81,36.81,0,0,1,1.33-4.21,24.52,24.52,0,0,1,16.83-14.29A38.84,38.84,0,0,1,121,26.25a43.07,43.07,0,0,1,22.87,6.89c7.39,4.64,12.67,11.14,17,18.49a45.32,45.32,0,0,1,5.85,27.76A68.79,68.79,0,0,1,164.36,93.45Z"/><path class="cls-1" d="M171.33,146.51c-1.4,3.5-3.52,4.59-7.66,4-3.41-.52-6.37-2.26-9.36-3.81-2.35-1.22-4.53-2.8-6.78-4.22s-4.32-2.79-6.91-3.27c-1.09-1.52-3.31-1.42-4.36-3.17a15.11,15.11,0,0,1-2.47-8.23,13.78,13.78,0,0,1,9.65-13.16,6.55,6.55,0,0,1,1.71-.32,4.11,4.11,0,0,1,1.09.31c-1.38,1.28-2.68,2.37-3.86,3.6a18.25,18.25,0,0,0-4.52,7.94,11,11,0,0,0-.2,3.25,1.27,1.27,0,0,0,1.26,1.36,1.37,1.37,0,0,0,1.4-1.38,10.66,10.66,0,0,1,.06-2.2,22.17,22.17,0,0,1,1.92-4.5c1.57-2.56,3.48-4.84,6.42-6a1.49,1.49,0,0,0,.49-.34,25,25,0,0,1,7-4.76,37.34,37.34,0,0,1,5.25-2.55,10.63,10.63,0,0,1,7.61.11c2.72,1.17,2.91,3.49,2.07,5.61a11.38,11.38,0,0,1-3.93,4.53c-1.86,1.47-1.92,2.44-.58,4.42a16.7,16.7,0,0,1,2.09,4c1.14,3.34,2.11,6.73,3.13,10.1A12.88,12.88,0,0,1,171.33,146.51Z"/><path class="cls-1" d="M27.6,121.81c-1.55,5.87-6,8.64-11.58,8.64a2.8,2.8,0,0,0-.71,0,6.45,6.45,0,0,1-6.48-1.84c-2.66-2.55-3.55-5.3-2.17-8.79a13.7,13.7,0,0,1,3.11-5.33c2.81-2.59,5.92-4.79,10-4.79s6.76,2.28,7.73,6.19A12.63,12.63,0,0,1,27.6,121.81Z"/><path class="cls-1" d="M26.32,108.24c-1.58-.55-3-1-4.39-1.54a1.11,1.11,0,0,1-.55-.52A3.5,3.5,0,0,1,21,105c-.64-4.75-.49-9.42,1.57-13.85a8.32,8.32,0,0,1,1-1.66c1.58-2.07,4-2,5.36.27A7.76,7.76,0,0,1,30,92.85c.33,3.29.5,6.6.68,9.9a1.55,1.55,0,0,1-1.11,1.73,5.44,5.44,0,0,0-2.87,2.94C26.58,107.72,26.43,108,26.32,108.24Z"/><path class="cls-1" d="M17.21,106.43a55.43,55.43,0,0,0-5,2.43A50.35,50.35,0,0,0,8,112.07c-.06,0-.15,0-.18-.06-3-3.79-5.33-7.84-4.18-13a5.66,5.66,0,0,1,.62-1.51,2,2,0,0,1,2.78-1,8.68,8.68,0,0,1,1.82.93,32.47,32.47,0,0,1,7.94,8.09A9,9,0,0,1,17.21,106.43Z"/><path class="cls-1" d="M15.25,134.26c9.79,2.78,17.25-1.56,24-8,.84,4.14-4.36,9.94-10.21,11.57C24.2,139.24,16.33,137.23,15.25,134.26Z"/><path class="cls-3" d="M85.35,99.91l2.16-1.07,3.23-.3,3.06,1.07,2.44,1.53.25-7.81.05-2.53s-.35-.3-1,.16-3.45.55-4,.73a20.09,20.09,0,0,1-3.25.25c-.21,0-2.74-.59-2.87-.62l-1.85-.48-.34,3Z"/><polygon class="cls-4" points="90.27 117.7 85.03 100.49 86.58 99.3 89.64 98.64 92.23 99.25 95.39 100.6 90.27 117.7"/><path class="cls-1" d="M83.28,88.15l2.71,3,4,.93,5.26-.61s1.45-3.13,1.49-3.32A17.83,17.83,0,0,0,96,85.87l-4.88-1.14-4.88,1-2,1.16Z"/><polygon class="cls-1" points="68.27 81.59 71.27 82.29 72.23 79.31 71.6 76.39 69.84 74.86 67.15 74.97 65.85 76.89 65.41 78.75 68.27 81.59"/><path class="cls-1" d="M107.56,80.57l2,1.12h2.81s1.84-1.34,1.69-1.57,1-2.51.65-2.8a13.17,13.17,0,0,1-1.46-2l-1.52-1.12-1.87.33-1.53,1.67-.75,3.24Z"/><ellipse class="cls-5" cx="52.24" cy="94.02" rx="5.47" ry="12.76" transform="translate(-43.39 143.25) rotate(-88.18)"/><ellipse class="cls-5" cx="128.88" cy="94.68" rx="5.47" ry="12.76" transform="translate(30.17 220.49) rotate(-88.18)"/><path class="cls-6" d="M175.8,137.54c-1-3.67-2.11-7.3-3.28-10.92a22,22,0,0,0-1.75-3.91c-.37-.67-.23-1,.25-1.47a26.59,26.59,0,0,0,3.06-3.57c2.4-3.74,2.31-9.8-3.52-12.15-1.29-.52-2.65-.82-4.11-1.25.06-.21.12-.43.2-.65.84-2.28,1.81-4.52,2.48-6.85a85.12,85.12,0,0,0,2.75-14.19,59.87,59.87,0,0,0-2.35-23.84c-2.18-7.16-6.13-13.33-10.88-19.05-9.74-11.69-22.15-18-37.42-18.47-3.76-.11-7.4.77-11,1.61-8.91,2.05-15.38,7.31-20,15.07-.16.27-.34.53-.51.82-.15-.11-.23-.14-.26-.2-.15-.23-.28-.47-.42-.7A32,32,0,0,0,75.56,25.37c-3.35-1.69-7-2.29-10.64-3a35.38,35.38,0,0,0-6.31-.66C46.93,21.8,36.76,26,27.78,33.32,23.38,36.89,20,41.4,16.8,46c-5.67,8.12-8.29,17.27-9,27A67.49,67.49,0,0,0,9.67,92.9c.1.38.16.77.27,1.36l-1.21-.47C4.58,92,2,94.09.87,97.07a12.49,12.49,0,0,0-.16,8.75,24.87,24.87,0,0,0,4.23,7.93,1.3,1.3,0,0,1,.14,1.07c-.39,1-1,1.89-1.33,2.88A14.79,14.79,0,0,0,3,125.87C3.93,130,6.94,132,10.6,133.2a2.54,2.54,0,0,1,1.6,1.35,8.34,8.34,0,0,0,2,2.69,18.05,18.05,0,0,0,11.12,3.91c3.94,0,7.39-1.6,10.56-3.81a1.36,1.36,0,0,1,2,.13,77.91,77.91,0,0,0,19.55,13.07c4.64,2.06,9.45,3.79,14.23,5.54,2.68,1,5.45,1.79,8.21,2.54,2,.52,3.94.85,5.93,1.18a20.85,20.85,0,0,0,4.87.55,41.55,41.55,0,0,0,7.78-1.27c4.45-1.2,8.85-2.61,13.21-4.08a83.2,83.2,0,0,0,24.66-12.87.86.86,0,0,1,1.32,0,2.76,2.76,0,0,0,1.35.68c2.43.35,4.39,1.65,6.4,2.9,2.85,1.75,5.66,3.59,8.61,5.16,3.29,1.74,6.64,3.34,10.48,3.64,4.45.36,8.07-1.5,10-5.52A16.21,16.21,0,0,0,175.8,137.54ZM7.78,112c-3-3.78-5.33-7.83-4.18-13a5.53,5.53,0,0,1,.62-1.51,2,2,0,0,1,2.78-1,8.68,8.68,0,0,1,1.82.93,32.3,32.3,0,0,1,7.94,8.09,9,9,0,0,1,.45.86,54.31,54.31,0,0,0-5,2.44A47.9,47.9,0,0,0,8,112.07C7.9,112.05,7.81,112.05,7.78,112Zm7.53,18.48a6.44,6.44,0,0,1-6.48-1.82c-2.66-2.56-3.55-5.32-2.18-8.8a14.08,14.08,0,0,1,3.12-5.34c2.81-2.58,5.93-4.78,10-4.78s6.76,2.27,7.73,6.18a12.71,12.71,0,0,1,.13,5.9c-1.55,5.86-6,8.63-11.58,8.62A3.35,3.35,0,0,0,15.31,130.48Zm7.24-39.31a8.85,8.85,0,0,1,1-1.65c1.58-2.08,4-2,5.37.27A7.69,7.69,0,0,1,30,92.85c.33,3.29.5,6.59.68,9.89a1.58,1.58,0,0,1-1.11,1.75,5.39,5.39,0,0,0-2.87,2.93c-.14.3-.29.6-.4.82-1.57-.55-3-1-4.39-1.53a1.2,1.2,0,0,1-.55-.52A3.72,3.72,0,0,1,21,105C20.33,100.28,20.5,95.61,22.55,91.17Zm10.19,23.69a16.13,16.13,0,0,1-2.85-3.2,2.93,2.93,0,0,1,1.63-4.52c5.3-1.78,10.16,2.5,9.19,8.14A21.09,21.09,0,0,1,36.85,124a12.27,12.27,0,0,1-2.14,2c-2.69,2.29-5.47,4.44-9,5.32a3.19,3.19,0,0,1-.6.08c-.06,0-.12-.06-.16-.08a29.33,29.33,0,0,0,3.29-3.63,32.5,32.5,0,0,0,2.36-5.07c.25-.61.31-1.1,1.19-1s2-1,2.29-2.32A4,4,0,0,0,32.74,114.86Zm-3.65,23c-4.89,1.37-12.76-.64-13.84-3.6,9.8,2.77,17.25-1.57,24.06-8C40.14,130.44,34.94,136.24,29.09,137.87Zm102.77.84a78.81,78.81,0,0,1-21.59,11c-3.89,1.33-7.81,2.6-11.76,3.69-3.43,1-7,.8-10.5.78-4.5,0-8.7-1.4-12.88-2.8-4.5-1.5-9-3-13.39-4.86C54,143.32,47.3,138.5,41,133a1,1,0,0,1-.25-1.35,13.78,13.78,0,0,0,1.09-9.09,2,2,0,0,1,.2-1.15A17.43,17.43,0,0,0,44,114c-.11-4.31-1.92-7.78-5.91-9.74a18.27,18.27,0,0,0-3.91-1c-.28-3.59-.47-7.07-.9-10.52a12.37,12.37,0,0,0-1.34-4.27,6.76,6.76,0,0,0-6.16-3.77,5.34,5.34,0,0,0-4,1.88,13.33,13.33,0,0,0-3.23,6.1c-.52,1.94-.93,3.91-1.4,5.91-.09-.24-.25-.53-.36-.85a69.39,69.39,0,0,1-3.7-26.37,44.1,44.1,0,0,1,8-22.76c3.43-4.89,7.08-9.56,12-13.13,7.56-5.48,15.89-8.67,25.29-8.78a32.07,32.07,0,0,1,4.48.35c8.79,1.1,16.3,4.49,21.15,12.29a32.66,32.66,0,0,1,2.61,6.33c.73,2,1.63,2.83,3.46,2.61a2.59,2.59,0,0,0,2.37-2,36.81,36.81,0,0,1,1.33-4.21,24.52,24.52,0,0,1,16.83-14.29A38.84,38.84,0,0,1,121,26.25a43.07,43.07,0,0,1,22.87,6.89c7.39,4.64,12.67,11.14,17,18.49a45.32,45.32,0,0,1,5.85,27.76,68.79,68.79,0,0,1-2.31,14.06c-1.17,3.77-2.73,7.43-4.18,11.12a1.92,1.92,0,0,1-1.18.9,30.43,30.43,0,0,0-9.82,4.8,1.83,1.83,0,0,1-1.34.42c-3-.87-5.77-.06-8.41,1.31a18,18,0,0,0-7.08,25.08C132.88,138,132.46,138.27,131.86,138.71Zm39.47,7.8c-1.4,3.5-3.52,4.59-7.66,4-3.41-.52-6.37-2.26-9.36-3.81-2.35-1.22-4.53-2.8-6.78-4.22s-4.32-2.79-6.91-3.27c-1.09-1.52-3.31-1.42-4.36-3.17a15.11,15.11,0,0,1-2.47-8.23,13.78,13.78,0,0,1,9.65-13.16,6.55,6.55,0,0,1,1.71-.32,4.11,4.11,0,0,1,1.09.31c-1.38,1.28-2.68,2.37-3.86,3.6a18.25,18.25,0,0,0-4.52,7.94,11,11,0,0,0-.2,3.25,1.27,1.27,0,0,0,1.26,1.36,1.37,1.37,0,0,0,1.4-1.38,10.66,10.66,0,0,1,.06-2.2,22.17,22.17,0,0,1,1.92-4.5c1.57-2.56,3.48-4.84,6.42-6a1.49,1.49,0,0,0,.49-.34,25,25,0,0,1,7-4.76,37.34,37.34,0,0,1,5.25-2.55,10.63,10.63,0,0,1,7.61.11c2.72,1.17,2.91,3.49,2.07,5.61a11.38,11.38,0,0,1-3.93,4.53c-1.86,1.47-1.92,2.44-.58,4.42a16.7,16.7,0,0,1,2.09,4c1.14,3.34,2.11,6.73,3.13,10.1A12.88,12.88,0,0,1,171.33,146.51Z"/><path class="cls-7" d="M95.5,107.61c-1.29,3.93-2,8-3.34,11.86a9.15,9.15,0,0,1-1.2,2c-.41.62-.94.57-1.31,0a16.63,16.63,0,0,1-1.6-2.84A94.71,94.71,0,0,1,82.13,94.2c-.19-1.76-.39-3.53-.5-5.3-.13-2.17.79-3.3,2.84-4a17.81,17.81,0,0,1,10.88-.18c2.21.65,3.28,1.85,3.08,4.13Q97.91,94.92,97.1,101c-.29,2.24-1.19,4.42-1.6,6.64ZM90,116l.32,0a3,3,0,0,0,.27-.54c1.17-4.67,2.36-9.34,3.47-14a1.38,1.38,0,0,0-.57-1.11,6,6,0,0,0-6.74,0,1,1,0,0,0-.54,1.27c.31,1.29.5,2.61.85,3.89C88,109,89,112.46,90,116ZM95.44,92c-2.59,1.91-7.91,2-10.74.14.37,2.42.72,4.7,1.07,7,3.76-1.74,4-1.74,8.73-.13C94.81,96.71,95.12,94.4,95.44,92Zm.07-4.15a28.93,28.93,0,0,0-10.9.12C87.68,91.31,92.18,91.49,95.51,87.86Z"/><path class="cls-3" d="M73.16,88.78c0-1.34-.07-3.72-.18-6.1a43.4,43.4,0,0,0-.46-5.49A4,4,0,0,0,68.41,74a4.06,4.06,0,0,0-4,3.38,17.52,17.52,0,0,0-.28,3.16c0,3,0,6,.19,9a4.28,4.28,0,0,0,4.35,4.1C70.86,93.66,72.59,92.12,73.16,88.78Zm-4.67-8a2.61,2.61,0,0,1-2-3.11,2.71,2.71,0,0,1,3.2-2.16,2.67,2.67,0,0,1,1.86,3.28A2.56,2.56,0,0,1,68.49,80.83Z"/><path class="cls-3" d="M115.86,85.7c0-2.66-.09-5.31-.27-8a4.17,4.17,0,0,0-3.21-3.82,4.25,4.25,0,0,0-4.55,2,7.22,7.22,0,0,0-.69,2.63c-.15,1.63-.17,3.27-.17,4.9a48.83,48.83,0,0,0,.15,5.93,4.19,4.19,0,0,0,4.29,3.65c2.09,0,3.85-1.48,4.38-4.08C115.81,88.23,115.88,87,115.86,85.7Zm-7.51-8.53a2.47,2.47,0,0,1,3-1.94,2.81,2.81,0,0,1,2,3.3,2.61,2.61,0,0,1-3.11,2A2.69,2.69,0,0,1,108.35,77.17Z"/><path class="cls-7" d="M115.66,64.94a1.71,1.71,0,0,1-2.72,1.25c-1.14-.68-2.29-1.34-3.45-2a3.23,3.23,0,0,0-1.17-.35c-.82-.09-1.39-.45-1.45-1.31a1.52,1.52,0,0,1,1.33-1.69,3.91,3.91,0,0,1,2.1.14,35,35,0,0,1,4.44,2.48C115.25,63.84,115.47,64.62,115.66,64.94Z"/><path class="cls-7" d="M72.64,63.34a11.48,11.48,0,0,1-1.18.78c-1.44.76-2.95,1.4-4.34,2.24-1.11.67-2,.78-2.66,0A1.7,1.7,0,0,1,65,63.79a29.34,29.34,0,0,1,4.46-2.46,3.85,3.85,0,0,1,2.28,0C72.56,61.5,72.83,62.21,72.64,63.34Z"/><path class="cls-8" d="M157.94,9.84c1.2,1.35,2.39,2.69,3.57,4a34.66,34.66,0,0,1,8.43,22.52c.12,4.6-1.8,8.65-6.51,10.61-2.33,1-4.7,1.89-7.06,2.8-1.58.61-3-.23-4.33-.79-2.53-1-5-2.25-7.48-3.37a1.83,1.83,0,0,0-1.05-.15c-3.16.76-6.35,1.42-9.46,2.36a13.64,13.64,0,0,1-9.58-.82c-7-2.92-12.47-7.81-17.51-13.31a30.58,30.58,0,0,1-5.74-9.07,13.35,13.35,0,0,1-.86-3.37,2.4,2.4,0,0,1,2.61-2.9,38.71,38.71,0,0,1,4.27.57c1.18.19,2.37.39,3.54.61.74.14,1-.18,1-.86.25-2.65.54-5.3.8-8a9.16,9.16,0,0,1,5.5-7.84A29,29,0,0,1,132,0a62.28,62.28,0,0,1,15.42,2.09c1.63.49,3.23,1.11,4.83,1.7.51.19.86.31,1.31-.24a3.66,3.66,0,0,1,5.27-.8,4.16,4.16,0,0,1,.53,5.66C159,8.88,158.51,9.26,157.94,9.84ZM144.17,4c-3-.32-6.55-.72-10.08-1a27.56,27.56,0,0,0-13.75,2c-1.68.73-3.5,1.53-4.11,3.35a37.45,37.45,0,0,0-2,8.34c-.31,3.61,2.1,6.4,4,9.2.9,1.32,2.37,2.25,3.48,3.45a43.16,43.16,0,0,0,20.47,12.81,5.16,5.16,0,0,0,2.89.06c7.54-2.12,12.87-6.37,14.41-14.48a23.2,23.2,0,0,0-1.72-14.6A14.05,14.05,0,0,0,151,6.33,63,63,0,0,0,144.17,4Z"/><path class="cls-1" d="M144.17,4A63,63,0,0,1,151,6.33a14.05,14.05,0,0,1,6.76,6.76,23.2,23.2,0,0,1,1.72,14.6c-1.54,8.11-6.87,12.36-14.41,14.48a5.16,5.16,0,0,1-2.89-.06A43.16,43.16,0,0,1,121.7,29.3c-1.11-1.2-2.58-2.13-3.48-3.45-1.91-2.8-4.32-5.59-4-9.2a37.45,37.45,0,0,1,2-8.34c.61-1.82,2.43-2.62,4.11-3.35a27.56,27.56,0,0,1,13.75-2C137.62,3.26,141.15,3.66,144.17,4Z"/><path class="cls-9" d="M123.39,20.9a.66.66,0,0,1-.43.26.69.69,0,0,1-.48-.14.64.64,0,0,1-.26-.42.58.58,0,0,1,.14-.48l1.72-2.26L121.84,19a1.06,1.06,0,0,1-.46.1.7.7,0,0,1-.41-.16.75.75,0,0,1-.28-.37.89.89,0,0,1,0-.46l.47-2.45-1.71,2.25a.59.59,0,0,1-.9.12.58.58,0,0,1-.27-.42.64.64,0,0,1,.14-.48l3.18-4.17a.64.64,0,0,1,.42-.26.62.62,0,0,1,.48.14.6.6,0,0,1,.23.34.75.75,0,0,1,0,.42l-.72,4,3.65-1.76a1.27,1.27,0,0,1,.4-.11.58.58,0,0,1,.4.13.64.64,0,0,1,.26.43.6.6,0,0,1-.14.48Z"/><path class="cls-9" d="M140.89,31.8l2-2.63a.57.57,0,0,1,.44-.26.63.63,0,0,1,.48.15.67.67,0,0,1,.28.43A.61.61,0,0,1,144,30l-3.18,4.18a.6.6,0,0,1-.21.18.46.46,0,0,1-.23.06.54.54,0,0,1-.25,0,.57.57,0,0,1-.22-.11.78.78,0,0,1-.23-.26.56.56,0,0,1-.06-.29l0-4.66-2,2.64a.61.61,0,0,1-.44.25.73.73,0,0,1-.76-.58.57.57,0,0,1,.13-.49l3.17-4.17a.58.58,0,0,1,.45-.25.71.71,0,0,1,.47.14.62.62,0,0,1,.23.27.72.72,0,0,1,.06.29Z"/><path class="cls-9" d="M143.94,35.92a1.57,1.57,0,0,0,.53.27,1.51,1.51,0,0,0,.55.07,1.46,1.46,0,0,0,.51-.12,1.39,1.39,0,0,0,.43-.3L144.9,35a.51.51,0,0,1-.21-.38.62.62,0,0,1,.13-.42.58.58,0,0,1,.37-.23.47.47,0,0,1,.41.1l1.61,1.22a.68.68,0,0,1,.29.46.71.71,0,0,1-.16.49,3.36,3.36,0,0,1-.8.75,2.68,2.68,0,0,1-2.15.41,3,3,0,0,1-1.17-.57,3.58,3.58,0,0,1-.84-.9,2.75,2.75,0,0,1-.4-1.11,2.9,2.9,0,0,1,.09-1.23,3.84,3.84,0,0,1,.68-1.29,3.75,3.75,0,0,1,1.05-1,3.32,3.32,0,0,1,1.16-.42,2.88,2.88,0,0,1,1.17.09,3.48,3.48,0,0,1,1.67,1.12,3,3,0,0,1,.4.63,2.74,2.74,0,0,1,.23.64,2.2,2.2,0,0,1,0,.62.65.65,0,0,1-.21.4.54.54,0,0,1-.44.15,1,1,0,0,1-.23-.06.85.85,0,0,1-.19-.14.9.9,0,0,1-.14-.2.59.59,0,0,1-.05-.23,2.13,2.13,0,0,0-.14-.72,1.69,1.69,0,0,0-.57-.68,1.83,1.83,0,0,0-.61-.3,1.6,1.6,0,0,0-.69,0,2,2,0,0,0-.7.29A3,3,0,0,0,143.38,34a1.88,1.88,0,0,0-.1.76,1.51,1.51,0,0,0,.21.67A1.71,1.71,0,0,0,143.94,35.92Z"/><path class="cls-9" d="M123.81,11.31a.16.16,0,0,1-.1.1.16.16,0,0,1-.15,0,.18.18,0,0,1-.11-.1.17.17,0,0,1,0-.14L124,9.81a.23.23,0,0,1,.12-.12.25.25,0,0,1,.17,0l.57.25a.6.6,0,0,1,.24.16.63.63,0,0,1,.13.2.55.55,0,0,1,0,.22.86.86,0,0,1-.06.23.76.76,0,0,1-.12.19.62.62,0,0,1-.18.14.52.52,0,0,1-.23.05.79.79,0,0,1-.28-.06l-.41-.18Zm.32-.74.38.16a.3.3,0,0,0,.12,0l.1,0,.07-.06a.41.41,0,0,0,0-.09.32.32,0,0,0,0-.09.31.31,0,0,0,0-.1.2.2,0,0,0-.05-.09l-.1-.07-.39-.16Z"/><path class="cls-9" d="M125.26,11.93A.18.18,0,0,1,125,12a.18.18,0,0,1-.11-.1.14.14,0,0,1,0-.15l.59-1.4s.06-.09.11-.1a.19.19,0,0,1,.15,0,.23.23,0,0,1,.11.11.17.17,0,0,1,0,.14l-.23.54.72.3.23-.53a.14.14,0,0,1,.1-.1.16.16,0,0,1,.15,0,.18.18,0,0,1,.11.1.19.19,0,0,1,0,.15l-.6,1.4a.17.17,0,0,1-.1.1.2.2,0,0,1-.15,0,.18.18,0,0,1-.11-.1.19.19,0,0,1,0-.15l.23-.54-.72-.31Z"/><path class="cls-9" d="M128,11.2a1.07,1.07,0,0,1,.28.19.77.77,0,0,1,.19.28.78.78,0,0,1,.06.35,1.14,1.14,0,0,1-.09.42,1.12,1.12,0,0,1-.23.35,1,1,0,0,1-.3.2.79.79,0,0,1-.34.06,1,1,0,0,1-.33-.07,1.12,1.12,0,0,1-.29-.19,1.07,1.07,0,0,1-.19-.28,1,1,0,0,1-.06-.36.91.91,0,0,1,.1-.41,1.06,1.06,0,0,1,.23-.36.83.83,0,0,1,.3-.2.76.76,0,0,1,.33,0A1,1,0,0,1,128,11.2Zm-.14.32a.45.45,0,0,0-.2,0,.67.67,0,0,0-.19,0,.73.73,0,0,0-.18.14.67.67,0,0,0-.13.22.86.86,0,0,0-.07.25.65.65,0,0,0,.12.4.52.52,0,0,0,.17.12.58.58,0,0,0,.19,0,.41.41,0,0,0,.19,0,.49.49,0,0,0,.18-.14.93.93,0,0,0,.14-.22.82.82,0,0,0,.06-.25.53.53,0,0,0,0-.22.4.4,0,0,0-.1-.17A.48.48,0,0,0,127.83,11.52Z"/><path class="cls-9" d="M128.81,12a.15.15,0,0,1-.09-.1.2.2,0,0,1,0-.13.2.2,0,0,1,.09-.09.13.13,0,0,1,.12,0l1.16.49a.14.14,0,0,1,.08.09.19.19,0,0,1,0,.13.2.2,0,0,1-.09.09.15.15,0,0,1-.13,0l-.39-.17-.52,1.23a.21.21,0,0,1-.11.1.2.2,0,0,1-.15,0,.22.22,0,0,1-.11-.1.19.19,0,0,1,0-.15l.52-1.23Z"/><path class="cls-9" d="M131.12,12.54a1.07,1.07,0,0,1,.28.19.77.77,0,0,1,.19.28,1,1,0,0,1,.06.35,1.1,1.1,0,0,1-.33.77.83.83,0,0,1-.3.2.72.72,0,0,1-.33.06,1,1,0,0,1-.33-.07,1.12,1.12,0,0,1-.29-.19,1.07,1.07,0,0,1-.19-.28,1,1,0,0,1,0-.77,1.08,1.08,0,0,1,.24-.36.83.83,0,0,1,.3-.2.74.74,0,0,1,.33,0A1,1,0,0,1,131.12,12.54Zm-.14.32a.65.65,0,0,0-.2,0,.67.67,0,0,0-.19,0,.59.59,0,0,0-.18.14.93.93,0,0,0-.14.22,1.29,1.29,0,0,0-.06.25.52.52,0,0,0,0,.22.77.77,0,0,0,.1.18.52.52,0,0,0,.17.12.58.58,0,0,0,.19,0,.41.41,0,0,0,.19,0,.59.59,0,0,0,.18-.14.93.93,0,0,0,.14-.22,1.29,1.29,0,0,0,.06-.25.53.53,0,0,0,0-.22.4.4,0,0,0-.1-.17A.61.61,0,0,0,131,12.86Z"/><path class="cls-9" d="M141.31,18.17a.18.18,0,0,1,0-.25l1.48-1.45a.17.17,0,0,1,.25,0,.18.18,0,0,1,0,.25l-1.48,1.45a.18.18,0,0,1-.25,0"/><path class="cls-9" d="M142.08,19.53a.14.14,0,0,1-.05-.08.19.19,0,0,1,.13-.22l2-.51a.18.18,0,0,1,.22.13.18.18,0,0,1-.13.22l-2,.51a.15.15,0,0,1-.17,0"/><path class="cls-9" d="M142.06,21.1a.23.23,0,0,1-.05-.18.19.19,0,0,1,.23-.12l2,.55a.18.18,0,0,1,.12.22.18.18,0,0,1-.22.13l-2-.56-.08,0"/><path class="cls-9" d="M137.61,28.14l2.88-6.86a2,2,0,0,0-1-2.57l.14-.31a.26.26,0,0,0-.13-.33L138,17.42a.25.25,0,0,0-.32.13l-.13.31-.32-.13a6.47,6.47,0,0,0-2.64-2.07h0l-.07,0a6.45,6.45,0,0,0-3.39-.46l-4-1.67a2,2,0,0,0-1.52,0h0a2,2,0,0,0-1.09,1.07l.87.37a1,1,0,0,1,1.38-.56l2.8,1.17-.14,0a6.62,6.62,0,0,0-3.57,3.49v0l0,.06a6.61,6.61,0,0,0,3.53,8.64h0a6.66,6.66,0,0,0,3.39.46l2.23.94a2,2,0,0,0,1.53,0h0A2,2,0,0,0,137.61,28.14Zm-7.88-1.21a5.63,5.63,0,0,1-3-7.4h0a5.66,5.66,0,0,1,7.4-3h0A5.66,5.66,0,0,1,134.06,27a5.68,5.68,0,0,1-2.12.42A5.57,5.57,0,0,1,129.73,26.93Zm6.43,1.41h0a1.06,1.06,0,0,1-.8,0l-1.08-.46.14-.05A6.61,6.61,0,0,0,138,19.22l-.06-.13,1.08.45a1,1,0,0,1,.56.57,1.08,1.08,0,0,1,0,.81l-2.88,6.85A1.08,1.08,0,0,1,136.16,28.34Z"/><path class="cls-9" d="M133.85,17.14a5,5,0,1,1-3.8,0,5,5,0,0,1,3.8,0Zm1.55,3.16a3.74,3.74,0,1,0,0,2.87,3.74,3.74,0,0,0,0-2.87Z"/><path class="cls-9" d="M134.83,22.94a.23.23,0,0,1-.31.12.24.24,0,0,1-.13-.31,2.62,2.62,0,0,0,.21-1,2.73,2.73,0,0,0-.2-1v0a2.9,2.9,0,0,0-.58-.86,2.72,2.72,0,0,0-.86-.58.24.24,0,0,1-.13-.31.23.23,0,0,1,.31-.12,3,3,0,0,1,1,.68,3.07,3.07,0,0,1,.67,1v0a3.21,3.21,0,0,1,0,2.41Z"/><circle class="cls-1" cx="66.3" cy="81.78" r="1.02"/><circle class="cls-1" cx="113.96" cy="80.55" r="1.02"/></g></svg>